<svg width="154" height="32" viewBox="0 0 154 32" fill="none" xmlns="http://www.w3.org/2000/svg">
<path d="M3 9.85156L-3.08185e-08 9.85156C-9.03848e-08 15.65 4.70156 20.3516 10.5 20.3516L10.5 27.1016C10.5 27.5141 10.8375 27.8516 11.25 27.8516L12.75 27.8516C13.1625 27.8516 13.5 27.5141 13.5 27.1016L13.5 20.3516C13.5 14.5531 8.79844 9.85156 3 9.85156ZM21 6.85156C17.0531 6.85156 13.6219 9.03125 11.8266 12.2516C13.125 13.6672 14.0859 15.3875 14.5922 17.2953C19.875 16.7469 24 12.2844 24 6.85156L21 6.85156Z" fill="black"/>
<path d="M39.5486 24.288C38.3166 24.288 37.2286 24.08 36.2846 23.664C35.3406 23.232 34.5966 22.624 34.0526 21.84C33.5086 21.04 33.2286 20.072 33.2126 18.936H36.4526C36.4846 19.72 36.7646 20.384 37.2926 20.928C37.8366 21.456 38.5806 21.72 39.5246 21.72C40.3406 21.72 40.9886 21.528 41.4686 21.144C41.9486 20.744 42.1886 20.216 42.1886 19.56C42.1886 18.872 41.9726 18.336 41.5406 17.952C41.1246 17.568 40.5646 17.256 39.8606 17.016C39.1566 16.776 38.4046 16.52 37.6046 16.248C36.3086 15.8 35.3166 15.224 34.6286 14.52C33.9566 13.816 33.6206 12.88 33.6206 11.712C33.6046 10.72 33.8366 9.872 34.3166 9.168C34.8126 8.448 35.4846 7.896 36.3326 7.512C37.1806 7.112 38.1566 6.912 39.2606 6.912C40.3806 6.912 41.3646 7.112 42.2126 7.512C43.0766 7.912 43.7486 8.472 44.2286 9.192C44.7246 9.912 44.9886 10.768 45.0206 11.76H41.7326C41.7166 11.168 41.4846 10.648 41.0366 10.2C40.6046 9.736 39.9966 9.504 39.2126 9.504C38.5406 9.488 37.9726 9.656 37.5086 10.008C37.0606 10.344 36.8366 10.84 36.8366 11.496C36.8366 12.056 37.0126 12.504 37.3646 12.84C37.7166 13.16 38.1966 13.432 38.8046 13.656C39.4126 13.88 40.1086 14.12 40.8926 14.376C41.7246 14.664 42.4846 15 43.1726 15.384C43.8606 15.768 44.4126 16.28 44.8286 16.92C45.2446 17.544 45.4526 18.352 45.4526 19.344C45.4526 20.224 45.2286 21.04 44.7806 21.792C44.3326 22.544 43.6686 23.152 42.7886 23.616C41.9086 24.064 40.8286 24.288 39.5486 24.288ZM54.0849 24.288C52.8849 24.288 51.8209 24.032 50.8929 23.52C49.9649 23.008 49.2369 22.288 48.7089 21.36C48.1809 20.432 47.9169 19.36 47.9169 18.144C47.9169 16.912 48.1729 15.816 48.6849 14.856C49.2129 13.896 49.9329 13.152 50.8449 12.624C51.7729 12.08 52.8609 11.808 54.1089 11.808C55.2769 11.808 56.3089 12.064 57.2049 12.576C58.1009 13.088 58.7969 13.792 59.2929 14.688C59.8049 15.568 60.0609 16.552 60.0609 17.64C60.0609 17.816 60.0529 18 60.0369 18.192C60.0369 18.384 60.0289 18.584 60.0129 18.792H50.9649C51.0289 19.72 51.3489 20.448 51.9249 20.976C52.5169 21.504 53.2289 21.768 54.0609 21.768C54.6849 21.768 55.2049 21.632 55.6209 21.36C56.0529 21.072 56.3729 20.704 56.5809 20.256H59.7009C59.4769 21.008 59.1009 21.696 58.5729 22.32C58.0609 22.928 57.4209 23.408 56.6529 23.76C55.9009 24.112 55.0449 24.288 54.0849 24.288ZM54.1089 14.304C53.3569 14.304 52.6929 14.52 52.1169 14.952C51.5409 15.368 51.1729 16.008 51.0129 16.872H56.9409C56.8929 16.088 56.6049 15.464 56.0769 15C55.5489 14.536 54.8929 14.304 54.1089 14.304ZM68.6687 24.288C67.4687 24.288 66.4047 24.032 65.4767 23.52C64.5487 23.008 63.8207 22.288 63.2927 21.36C62.7647 20.432 62.5007 19.36 62.5007 18.144C62.5007 16.912 62.7567 15.816 63.2687 14.856C63.7967 13.896 64.5167 13.152 65.4287 12.624C66.3567 12.08 67.4447 11.808 68.6927 11.808C69.8607 11.808 70.8927 12.064 71.7887 12.576C72.6847 13.088 73.3807 13.792 73.8767 14.688C74.3887 15.568 74.6447 16.552 74.6447 17.64C74.6447 17.816 74.6367 18 74.6207 18.192C74.6207 18.384 74.6127 18.584 74.5967 18.792H65.5487C65.6127 19.72 65.9327 20.448 66.5087 20.976C67.1007 21.504 67.8127 21.768 68.6447 21.768C69.2687 21.768 69.7887 21.632 70.2047 21.36C70.6367 21.072 70.9567 20.704 71.1647 20.256H74.2847C74.0607 21.008 73.6847 21.696 73.1567 22.32C72.6447 22.928 72.0047 23.408 71.2367 23.76C70.4847 24.112 69.6287 24.288 68.6687 24.288ZM68.6927 14.304C67.9407 14.304 67.2767 14.52 66.7007 14.952C66.1247 15.368 65.7567 16.008 65.5967 16.872H71.5247C71.4767 16.088 71.1887 15.464 70.6607 15C70.1327 14.536 69.4767 14.304 68.6927 14.304ZM82.9404 24.288C81.8204 24.288 80.8204 24.016 79.9404 23.472C79.0604 22.928 78.3644 22.184 77.8524 21.24C77.3404 20.296 77.0844 19.224 77.0844 18.024C77.0844 16.824 77.3404 15.76 77.8524 14.832C78.3644 13.888 79.0604 13.152 79.9404 12.624C80.8204 12.08 81.8204 11.808 82.9404 11.808C83.8364 11.808 84.6204 11.976 85.2924 12.312C85.9644 12.648 86.5084 13.12 86.9244 13.728V6.72H89.9964V24H87.2604L86.9244 22.296C86.5404 22.824 86.0284 23.288 85.3884 23.688C84.7644 24.088 83.9484 24.288 82.9404 24.288ZM83.5884 21.6C84.5804 21.6 85.3884 21.272 86.0124 20.616C86.6524 19.944 86.9724 19.088 86.9724 18.048C86.9724 17.008 86.6524 16.16 86.0124 15.504C85.3884 14.832 84.5804 14.496 83.5884 14.496C82.6124 14.496 81.8044 14.824 81.1644 15.48C80.5244 16.136 80.2044 16.984 80.2044 18.024C80.2044 19.064 80.5244 19.92 81.1644 20.592C81.8044 21.264 82.6124 21.6 83.5884 21.6ZM99.3954 24V7.2H102.467V21.6H109.907V24H99.3954ZM116.886 24.288C115.862 24.288 115.022 24.128 114.366 23.808C113.71 23.472 113.222 23.032 112.902 22.488C112.582 21.944 112.422 21.344 112.422 20.688C112.422 19.584 112.854 18.688 113.718 18C114.582 17.312 115.878 16.968 117.606 16.968H120.63V16.68C120.63 15.864 120.398 15.264 119.934 14.88C119.47 14.496 118.894 14.304 118.206 14.304C117.582 14.304 117.038 14.456 116.574 14.76C116.11 15.048 115.822 15.48 115.71 16.056H112.71C112.79 15.192 113.078 14.44 113.574 13.8C114.086 13.16 114.742 12.672 115.542 12.336C116.342 11.984 117.238 11.808 118.23 11.808C119.926 11.808 121.262 12.232 122.238 13.08C123.214 13.928 123.702 15.128 123.702 16.68V24H121.086L120.798 22.08C120.446 22.72 119.95 23.248 119.31 23.664C118.686 24.08 117.878 24.288 116.886 24.288ZM117.582 21.888C118.462 21.888 119.142 21.6 119.622 21.024C120.118 20.448 120.43 19.736 120.558 18.888H117.942C117.126 18.888 116.542 19.04 116.19 19.344C115.838 19.632 115.662 19.992 115.662 20.424C115.662 20.888 115.838 21.248 116.19 21.504C116.542 21.76 117.006 21.888 117.582 21.888ZM133.93 24.288C133.034 24.288 132.25 24.12 131.578 23.784C130.906 23.448 130.362 22.976 129.946 22.368L129.61 24H126.874V6.72H129.946V13.8C130.33 13.272 130.834 12.808 131.458 12.408C132.098 12.008 132.922 11.808 133.93 11.808C135.05 11.808 136.05 12.08 136.93 12.624C137.81 13.168 138.506 13.912 139.018 14.856C139.53 15.8 139.786 16.872 139.786 18.072C139.786 19.272 139.53 20.344 139.018 21.288C138.506 22.216 137.81 22.952 136.93 23.496C136.05 24.024 135.05 24.288 133.93 24.288ZM133.282 21.6C134.258 21.6 135.066 21.272 135.706 20.616C136.346 19.96 136.666 19.112 136.666 18.072C136.666 17.032 136.346 16.176 135.706 15.504C135.066 14.832 134.258 14.496 133.282 14.496C132.29 14.496 131.474 14.832 130.834 15.504C130.21 16.16 129.898 17.008 129.898 18.048C129.898 19.088 130.21 19.944 130.834 20.616C131.474 21.272 132.29 21.6 133.282 21.6ZM147.69 24.288C146.634 24.288 145.706 24.12 144.906 23.784C144.106 23.432 143.466 22.952 142.986 22.344C142.506 21.736 142.218 21.032 142.122 20.232H145.218C145.314 20.696 145.57 21.096 145.986 21.432C146.418 21.752 146.97 21.912 147.642 21.912C148.314 21.912 148.802 21.776 149.106 21.504C149.426 21.232 149.586 20.92 149.586 20.568C149.586 20.056 149.362 19.712 148.914 19.536C148.466 19.344 147.842 19.16 147.042 18.984C146.53 18.872 146.01 18.736 145.482 18.576C144.954 18.416 144.466 18.216 144.018 17.976C143.586 17.72 143.234 17.4 142.962 17.016C142.69 16.616 142.554 16.128 142.554 15.552C142.554 14.496 142.97 13.608 143.802 12.888C144.65 12.168 145.834 11.808 147.354 11.808C148.762 11.808 149.882 12.136 150.714 12.792C151.562 13.448 152.066 14.352 152.226 15.504H149.322C149.146 14.624 148.482 14.184 147.33 14.184C146.754 14.184 146.306 14.296 145.986 14.52C145.682 14.744 145.53 15.024 145.53 15.36C145.53 15.712 145.762 15.992 146.226 16.2C146.69 16.408 147.306 16.6 148.074 16.776C148.906 16.968 149.666 17.184 150.354 17.424C151.058 17.648 151.618 17.992 152.034 18.456C152.45 18.904 152.658 19.552 152.658 20.4C152.674 21.136 152.482 21.8 152.082 22.392C151.682 22.984 151.106 23.448 150.354 23.784C149.602 24.12 148.714 24.288 147.69 24.288Z" fill="black"/>
</svg>
